<svg xmlns="http://www.w3.org/2000/svg" viewBox="0 0 640 640" role="img" aria-labelledby="title desc">
  <title id="title">SnackPack 2026 soccer ball illustration</title>
  <desc id="desc">An original soccer ball illustration with teal, red, gold, and blue accent panels.</desc>
  <defs>
    <radialGradient id="ball" cx="32%" cy="24%" r="72%">
      <stop offset="0%" stop-color="#ffffff"/>
      <stop offset="48%" stop-color="#f8f4e9"/>
      <stop offset="100%" stop-color="#d9d1c0"/>
    </radialGradient>
    <filter id="shadow" x="-20%" y="-20%" width="140%" height="140%">
      <feDropShadow dx="0" dy="24" stdDeviation="22" flood-color="#201713" flood-opacity="0.24"/>
    </filter>
  </defs>
  <circle cx="320" cy="320" r="248" fill="url(#ball)" filter="url(#shadow)"/>
  <path d="M320 176 406 238 374 340H266L234 238Z" fill="#201713"/>
  <path d="M320 176 406 238M406 238 506 220M406 238 486 352M374 340 428 454M266 340 212 454M234 238 134 220M234 238 154 352M266 340 154 352M374 340 486 352" fill="none" stroke="#201713" stroke-width="18" stroke-linecap="round" stroke-linejoin="round"/>
  <path d="M126 222C160 128 236 78 320 72M514 220c-34-86-106-140-194-148M124 416c44 90 118 140 196 152M516 414c-42 92-118 142-196 154" fill="none" stroke="#201713" stroke-width="16" stroke-linecap="round" opacity="0.36"/>
  <path d="M159 158c44-52 99-82 161-86l-38 90-86 54Z" fill="#1f8f77" opacity="0.88"/>
  <path d="M481 158c-44-52-99-82-161-86l38 90 86 54Z" fill="#de6a38" opacity="0.88"/>
  <path d="M126 416c32 66 82 111 150 136l-8-104-96-52Z" fill="#efb54d" opacity="0.9"/>
  <path d="M514 416c-32 66-82 111-150 136l8-104 96-52Z" fill="#4f8fd6" opacity="0.88"/>
  <circle cx="320" cy="320" r="248" fill="none" stroke="#ffffff" stroke-width="10" opacity="0.65"/>
</svg>
